<?xml version="1.0" encoding="UTF-8" standalone="no"?>
<!DOCTYPE svg PUBLIC "-//W3C//DTD SVG 1.1//EN"
 "http://www.w3.org/Graphics/SVG/1.1/DTD/svg11.dtd">
<!-- Generated by graphviz version 2.38.0 (20140413.2041)
 -->
<!-- Title: controllers_diagram Pages: 1 -->
<svg width="1047pt" height="977pt"
 viewBox="0.00 0.00 1046.55 976.97" xmlns="http://www.w3.org/2000/svg" xmlns:xlink="http://www.w3.org/1999/xlink">
<g id="graph0" class="graph" transform="scale(1 1) rotate(0) translate(453.546 448.354)">
<title>controllers_diagram</title>
<polygon fill="none" stroke="none" points="-453.546,528.616 -453.546,-448.354 593,-448.354 593,528.616 -453.546,528.616"/>
<!-- _diagram_info -->
<g id="node1" class="node"><title>_diagram_info</title>
<text text-anchor="start" x="383" y="311.4" font-family="Times,serif" font-size="13.00">Controllers diagram</text>
<text text-anchor="start" x="383" y="325.4" font-family="Times,serif" font-size="13.00">Date: Dec 04 2017 &#45; 15:46</text>
<text text-anchor="start" x="383" y="339.4" font-family="Times,serif" font-size="13.00">Migration version: 20171129190421</text>
<text text-anchor="start" x="383" y="353.4" font-family="Times,serif" font-size="13.00">Generated by RailRoady 1.5.3</text>
<text text-anchor="start" x="383" y="367.4" font-family="Times,serif" font-size="13.00">http://railroady.prestonlee.com</text>
</g>
<!-- API::PostsController -->
<g id="node2" class="node"><title>API::PostsController</title>
<path fill="none" stroke="black" d="M-437.546,217.26C-437.546,217.26 -331.546,217.26 -331.546,217.26 -325.546,217.26 -319.546,211.26 -319.546,205.26 -319.546,205.26 -319.546,31.2605 -319.546,31.2605 -319.546,25.2605 -325.546,19.2605 -331.546,19.2605 -331.546,19.2605 -437.546,19.2605 -437.546,19.2605 -443.546,19.2605 -449.546,25.2605 -449.546,31.2605 -449.546,31.2605 -449.546,205.26 -449.546,205.26 -449.546,211.26 -443.546,217.26 -437.546,217.26"/>
<text text-anchor="middle" x="-384.546" y="34.4605" font-family="Times,serif" font-size="14.00">API::PostsController</text>
<polyline fill="none" stroke="black" points="-449.546,42.2605 -319.546,42.2605 "/>
<text text-anchor="start" x="-441.546" y="57.4605" font-family="Times,serif" font-size="14.00">create</text>
<text text-anchor="start" x="-441.546" y="72.4605" font-family="Times,serif" font-size="14.00">destroy</text>
<text text-anchor="start" x="-441.546" y="87.4605" font-family="Times,serif" font-size="14.00">index</text>
<text text-anchor="start" x="-441.546" y="102.46" font-family="Times,serif" font-size="14.00">show</text>
<text text-anchor="start" x="-441.546" y="117.46" font-family="Times,serif" font-size="14.00">update</text>
<polyline fill="none" stroke="black" points="-449.546,125.26 -319.546,125.26 "/>
<polyline fill="none" stroke="black" points="-449.546,149.26 -319.546,149.26 "/>
<text text-anchor="start" x="-441.546" y="164.46" font-family="Times,serif" font-size="14.00">_layout</text>
<text text-anchor="start" x="-441.546" y="179.46" font-family="Times,serif" font-size="14.00">post_params</text>
<text text-anchor="start" x="-441.546" y="194.46" font-family="Times,serif" font-size="14.00">set_current_page</text>
<text text-anchor="start" x="-441.546" y="209.46" font-family="Times,serif" font-size="14.00">set_post</text>
</g>
<!-- API::ApplicationController -->
<g id="node3" class="node"><title>API::ApplicationController</title>
<path fill="none" stroke="black" d="M-174.653,179.254C-174.653,179.254 -33.6526,179.254 -33.6526,179.254 -27.6526,179.254 -21.6526,173.254 -21.6526,167.254 -21.6526,167.254 -21.6526,97.2536 -21.6526,97.2536 -21.6526,91.2536 -27.6526,85.2536 -33.6526,85.2536 -33.6526,85.2536 -174.653,85.2536 -174.653,85.2536 -180.653,85.2536 -186.653,91.2536 -186.653,97.2536 -186.653,97.2536 -186.653,167.254 -186.653,167.254 -186.653,173.254 -180.653,179.254 -174.653,179.254"/>
<text text-anchor="middle" x="-104.153" y="100.454" font-family="Times,serif" font-size="14.00">API::ApplicationController</text>
<polyline fill="none" stroke="black" points="-186.653,108.254 -21.6526,108.254 "/>
<polyline fill="none" stroke="black" points="-186.653,132.254 -21.6526,132.254 "/>
<polyline fill="none" stroke="black" points="-186.653,156.254 -21.6526,156.254 "/>
<text text-anchor="start" x="-178.653" y="171.454" font-family="Times,serif" font-size="14.00">_layout</text>
</g>
<!-- API::ApplicationController&#45;&gt;API::PostsController -->
<g id="edge1" class="edge"><title>API::ApplicationController&#45;&gt;API::PostsController</title>
<path fill="none" stroke="black" d="M-186.763,128.131C-229.087,126.019 -279.885,123.484 -319.403,121.511"/>
</g>
<!-- API::UsersController -->
<g id="node4" class="node"><title>API::UsersController</title>
<path fill="none" stroke="black" d="M-215.387,524.116C-215.387,524.116 -90.3867,524.116 -90.3867,524.116 -84.3867,524.116 -78.3867,518.116 -78.3867,512.116 -78.3867,512.116 -78.3867,308.116 -78.3867,308.116 -78.3867,302.116 -84.3867,296.116 -90.3867,296.116 -90.3867,296.116 -215.387,296.116 -215.387,296.116 -221.387,296.116 -227.387,302.116 -227.387,308.116 -227.387,308.116 -227.387,512.116 -227.387,512.116 -227.387,518.116 -221.387,524.116 -215.387,524.116"/>
<text text-anchor="middle" x="-152.887" y="311.316" font-family="Times,serif" font-size="14.00">API::UsersController</text>
<polyline fill="none" stroke="black" points="-227.387,319.116 -78.3867,319.116 "/>
<text text-anchor="start" x="-219.387" y="334.316" font-family="Times,serif" font-size="14.00">create</text>
<text text-anchor="start" x="-219.387" y="349.316" font-family="Times,serif" font-size="14.00">destroy</text>
<text text-anchor="start" x="-219.387" y="364.316" font-family="Times,serif" font-size="14.00">index</text>
<text text-anchor="start" x="-219.387" y="379.316" font-family="Times,serif" font-size="14.00">search</text>
<text text-anchor="start" x="-219.387" y="394.316" font-family="Times,serif" font-size="14.00">show</text>
<text text-anchor="start" x="-219.387" y="409.316" font-family="Times,serif" font-size="14.00">update</text>
<polyline fill="none" stroke="black" points="-227.387,417.116 -78.3867,417.116 "/>
<polyline fill="none" stroke="black" points="-227.387,441.116 -78.3867,441.116 "/>
<text text-anchor="start" x="-219.387" y="456.316" font-family="Times,serif" font-size="14.00">_layout</text>
<text text-anchor="start" x="-219.387" y="471.316" font-family="Times,serif" font-size="14.00">indicate_illegal_request</text>
<text text-anchor="start" x="-219.387" y="486.316" font-family="Times,serif" font-size="14.00">show_record_not_found</text>
<text text-anchor="start" x="-219.387" y="501.316" font-family="Times,serif" font-size="14.00">user_detail_params</text>
<text text-anchor="start" x="-219.387" y="516.316" font-family="Times,serif" font-size="14.00">user_params</text>
</g>
<!-- API::ApplicationController&#45;&gt;API::UsersController -->
<g id="edge3" class="edge"><title>API::ApplicationController&#45;&gt;API::UsersController</title>
<path fill="none" stroke="black" d="M-112.42,179.389C-118.027,211.363 -125.694,255.077 -132.847,295.86"/>
</g>
<!-- CommentsController -->
<g id="node5" class="node"><title>CommentsController</title>
<path fill="none" stroke="black" d="M4.37037,-230.854C4.37037,-230.854 112.37,-230.854 112.37,-230.854 118.37,-230.854 124.37,-236.854 124.37,-242.854 124.37,-242.854 124.37,-431.854 124.37,-431.854 124.37,-437.854 118.37,-443.854 112.37,-443.854 112.37,-443.854 4.37037,-443.854 4.37037,-443.854 -1.62963,-443.854 -7.62963,-437.854 -7.62963,-431.854 -7.62963,-431.854 -7.62963,-242.854 -7.62963,-242.854 -7.62963,-236.854 -1.62963,-230.854 4.37037,-230.854"/>
<text text-anchor="middle" x="58.3704" y="-428.654" font-family="Times,serif" font-size="14.00">CommentsController</text>
<polyline fill="none" stroke="black" points="-7.62963,-420.854 124.37,-420.854 "/>
<text text-anchor="start" x="0.370369" y="-405.654" font-family="Times,serif" font-size="14.00">create</text>
<text text-anchor="start" x="0.370369" y="-390.654" font-family="Times,serif" font-size="14.00">destroy</text>
<text text-anchor="start" x="0.370369" y="-375.654" font-family="Times,serif" font-size="14.00">edit</text>
<text text-anchor="start" x="0.370369" y="-360.654" font-family="Times,serif" font-size="14.00">index</text>
<text text-anchor="start" x="0.370369" y="-345.654" font-family="Times,serif" font-size="14.00">new</text>
<text text-anchor="start" x="0.370369" y="-330.654" font-family="Times,serif" font-size="14.00">show</text>
<text text-anchor="start" x="0.370369" y="-315.654" font-family="Times,serif" font-size="14.00">update</text>
<polyline fill="none" stroke="black" points="-7.62963,-307.854 124.37,-307.854 "/>
<polyline fill="none" stroke="black" points="-7.62963,-283.854 124.37,-283.854 "/>
<text text-anchor="start" x="0.370369" y="-268.654" font-family="Times,serif" font-size="14.00">_layout</text>
<text text-anchor="start" x="0.370369" y="-253.654" font-family="Times,serif" font-size="14.00">comment_params</text>
<text text-anchor="start" x="0.370369" y="-238.654" font-family="Times,serif" font-size="14.00">set_comment</text>
</g>
<!-- PostsController -->
<g id="node6" class="node"><title>PostsController</title>
<path fill="none" stroke="black" d="M237.414,-192.369C237.414,-192.369 322.414,-192.369 322.414,-192.369 328.414,-192.369 334.414,-198.369 334.414,-204.369 334.414,-204.369 334.414,-408.369 334.414,-408.369 334.414,-414.369 328.414,-420.369 322.414,-420.369 322.414,-420.369 237.414,-420.369 237.414,-420.369 231.414,-420.369 225.414,-414.369 225.414,-408.369 225.414,-408.369 225.414,-204.369 225.414,-204.369 225.414,-198.369 231.414,-192.369 237.414,-192.369"/>
<text text-anchor="middle" x="279.914" y="-405.169" font-family="Times,serif" font-size="14.00">PostsController</text>
<polyline fill="none" stroke="black" points="225.414,-397.369 334.414,-397.369 "/>
<text text-anchor="start" x="233.414" y="-382.169" font-family="Times,serif" font-size="14.00">create</text>
<text text-anchor="start" x="233.414" y="-367.169" font-family="Times,serif" font-size="14.00">destroy</text>
<text text-anchor="start" x="233.414" y="-352.169" font-family="Times,serif" font-size="14.00">edit</text>
<text text-anchor="start" x="233.414" y="-337.169" font-family="Times,serif" font-size="14.00">index</text>
<text text-anchor="start" x="233.414" y="-322.169" font-family="Times,serif" font-size="14.00">new</text>
<text text-anchor="start" x="233.414" y="-307.169" font-family="Times,serif" font-size="14.00">show</text>
<text text-anchor="start" x="233.414" y="-292.169" font-family="Times,serif" font-size="14.00">update</text>
<polyline fill="none" stroke="black" points="225.414,-284.369 334.414,-284.369 "/>
<polyline fill="none" stroke="black" points="225.414,-260.369 334.414,-260.369 "/>
<text text-anchor="start" x="233.414" y="-245.169" font-family="Times,serif" font-size="14.00">_layout</text>
<text text-anchor="start" x="233.414" y="-230.169" font-family="Times,serif" font-size="14.00">post_params</text>
<text text-anchor="start" x="233.414" y="-215.169" font-family="Times,serif" font-size="14.00">set_current_page</text>
<text text-anchor="start" x="233.414" y="-200.169" font-family="Times,serif" font-size="14.00">set_post</text>
</g>
<!-- ApplicationController -->
<g id="node7" class="node"><title>ApplicationController</title>
<path fill="none" stroke="black" d="M74.0164,86.9751C74.0164,86.9751 202.016,86.9751 202.016,86.9751 208.016,86.9751 214.016,80.9751 214.016,74.9751 214.016,74.9751 214.016,-189.025 214.016,-189.025 214.016,-195.025 208.016,-201.025 202.016,-201.025 202.016,-201.025 74.0164,-201.025 74.0164,-201.025 68.0164,-201.025 62.0164,-195.025 62.0164,-189.025 62.0164,-189.025 62.0164,74.9751 62.0164,74.9751 62.0164,80.9751 68.0164,86.9751 74.0164,86.9751"/>
<text text-anchor="middle" x="138.016" y="-185.825" font-family="Times,serif" font-size="14.00">ApplicationController</text>
<polyline fill="none" stroke="black" points="62.0164,-178.025 214.016,-178.025 "/>
<text text-anchor="start" x="70.0164" y="-162.825" font-family="Times,serif" font-size="14.00">access_denied</text>
<text text-anchor="start" x="70.0164" y="-147.825" font-family="Times,serif" font-size="14.00">admin_denied</text>
<text text-anchor="start" x="70.0164" y="-132.825" font-family="Times,serif" font-size="14.00">admin_required</text>
<text text-anchor="start" x="70.0164" y="-117.825" font-family="Times,serif" font-size="14.00">current_user</text>
<text text-anchor="start" x="70.0164" y="-102.825" font-family="Times,serif" font-size="14.00">current_user=</text>
<text text-anchor="start" x="70.0164" y="-87.8249" font-family="Times,serif" font-size="14.00">get_notifications</text>
<text text-anchor="start" x="70.0164" y="-72.8249" font-family="Times,serif" font-size="14.00">is_admin?</text>
<text text-anchor="start" x="70.0164" y="-57.8249" font-family="Times,serif" font-size="14.00">logged_in?</text>
<text text-anchor="start" x="70.0164" y="-42.8249" font-family="Times,serif" font-size="14.00">login_from_basic_auth</text>
<text text-anchor="start" x="70.0164" y="-27.8249" font-family="Times,serif" font-size="14.00">login_from_session</text>
<text text-anchor="start" x="70.0164" y="-12.8249" font-family="Times,serif" font-size="14.00">login_required</text>
<text text-anchor="start" x="70.0164" y="2.17507" font-family="Times,serif" font-size="14.00">redirect_back_or_default</text>
<text text-anchor="start" x="70.0164" y="17.1751" font-family="Times,serif" font-size="14.00">set_locale</text>
<text text-anchor="start" x="70.0164" y="32.1751" font-family="Times,serif" font-size="14.00">store_location</text>
<polyline fill="none" stroke="black" points="62.0164,39.9751 214.016,39.9751 "/>
<polyline fill="none" stroke="black" points="62.0164,63.9751 214.016,63.9751 "/>
<text text-anchor="start" x="70.0164" y="79.1751" font-family="Times,serif" font-size="14.00">_layout</text>
</g>
<!-- ApplicationController&#45;&gt;API::ApplicationController -->
<g id="edge2" class="edge"><title>ApplicationController&#45;&gt;API::ApplicationController</title>
<path fill="none" stroke="black" d="M61.725,2.60418C27.6192,29.2612 -12.0059,60.2321 -43.9733,85.2177"/>
</g>
<!-- ApplicationController&#45;&gt;CommentsController -->
<g id="edge4" class="edge"><title>ApplicationController&#45;&gt;CommentsController</title>
<path fill="none" stroke="black" d="M97.0269,-201.295C94.2063,-211.223 91.3936,-221.123 88.6453,-230.796"/>
</g>
<!-- ApplicationController&#45;&gt;PostsController -->
<g id="edge5" class="edge"><title>ApplicationController&#45;&gt;PostsController</title>
<path fill="none" stroke="black" d="M214.158,-190.821C217.905,-197.406 221.633,-203.957 225.3,-210.4"/>
</g>
<!-- BroadcastsController -->
<g id="node8" class="node"><title>BroadcastsController</title>
<path fill="none" stroke="black" d="M-169.035,-89.5625C-169.035,-89.5625 -32.035,-89.5625 -32.035,-89.5625 -26.035,-89.5625 -20.035,-95.5625 -20.035,-101.562 -20.035,-101.562 -20.035,-290.562 -20.035,-290.562 -20.035,-296.562 -26.035,-302.562 -32.035,-302.562 -32.035,-302.562 -169.035,-302.562 -169.035,-302.562 -175.035,-302.562 -181.035,-296.562 -181.035,-290.562 -181.035,-290.562 -181.035,-101.562 -181.035,-101.562 -181.035,-95.5625 -175.035,-89.5625 -169.035,-89.5625"/>
<text text-anchor="middle" x="-100.535" y="-287.362" font-family="Times,serif" font-size="14.00">BroadcastsController</text>
<polyline fill="none" stroke="black" points="-181.035,-279.562 -20.035,-279.562 "/>
<text text-anchor="start" x="-173.035" y="-264.362" font-family="Times,serif" font-size="14.00">create</text>
<text text-anchor="start" x="-173.035" y="-249.362" font-family="Times,serif" font-size="14.00">destroy</text>
<text text-anchor="start" x="-173.035" y="-234.362" font-family="Times,serif" font-size="14.00">index</text>
<text text-anchor="start" x="-173.035" y="-219.362" font-family="Times,serif" font-size="14.00">new</text>
<text text-anchor="start" x="-173.035" y="-204.362" font-family="Times,serif" font-size="14.00">show</text>
<polyline fill="none" stroke="black" points="-181.035,-196.562 -20.035,-196.562 "/>
<polyline fill="none" stroke="black" points="-181.035,-172.562 -20.035,-172.562 "/>
<text text-anchor="start" x="-173.035" y="-157.362" font-family="Times,serif" font-size="14.00">_layout</text>
<text text-anchor="start" x="-173.035" y="-142.362" font-family="Times,serif" font-size="14.00">broadcast_params</text>
<text text-anchor="start" x="-173.035" y="-127.362" font-family="Times,serif" font-size="14.00">set_broadcast</text>
<text text-anchor="start" x="-173.035" y="-112.362" font-family="Times,serif" font-size="14.00">set_current_page</text>
<text text-anchor="start" x="-173.035" y="-97.3625" font-family="Times,serif" font-size="14.00">squelch_record_not_found</text>
</g>
<!-- ApplicationController&#45;&gt;BroadcastsController -->
<g id="edge6" class="edge"><title>ApplicationController&#45;&gt;BroadcastsController</title>
<path fill="none" stroke="black" d="M61.8814,-101.4C35.8376,-116.579 6.62242,-133.607 -19.7736,-148.991"/>
</g>
<!-- UsersController -->
<g id="node9" class="node"><title>UsersController</title>
<path fill="none" stroke="black" d="M354.428,-4.5693C354.428,-4.5693 479.428,-4.5693 479.428,-4.5693 485.428,-4.5693 491.428,-10.5693 491.428,-16.5693 491.428,-16.5693 491.428,-235.569 491.428,-235.569 491.428,-241.569 485.428,-247.569 479.428,-247.569 479.428,-247.569 354.428,-247.569 354.428,-247.569 348.428,-247.569 342.428,-241.569 342.428,-235.569 342.428,-235.569 342.428,-16.5693 342.428,-16.5693 342.428,-10.5693 348.428,-4.5693 354.428,-4.5693"/>
<text text-anchor="middle" x="416.928" y="-232.369" font-family="Times,serif" font-size="14.00">UsersController</text>
<polyline fill="none" stroke="black" points="342.428,-224.569 491.428,-224.569 "/>
<text text-anchor="start" x="350.428" y="-209.369" font-family="Times,serif" font-size="14.00">create</text>
<text text-anchor="start" x="350.428" y="-194.369" font-family="Times,serif" font-size="14.00">destroy</text>
<text text-anchor="start" x="350.428" y="-179.369" font-family="Times,serif" font-size="14.00">edit</text>
<text text-anchor="start" x="350.428" y="-164.369" font-family="Times,serif" font-size="14.00">index</text>
<text text-anchor="start" x="350.428" y="-149.369" font-family="Times,serif" font-size="14.00">new</text>
<text text-anchor="start" x="350.428" y="-134.369" font-family="Times,serif" font-size="14.00">search</text>
<text text-anchor="start" x="350.428" y="-119.369" font-family="Times,serif" font-size="14.00">show</text>
<text text-anchor="start" x="350.428" y="-104.369" font-family="Times,serif" font-size="14.00">update</text>
<polyline fill="none" stroke="black" points="342.428,-96.5693 491.428,-96.5693 "/>
<polyline fill="none" stroke="black" points="342.428,-72.5693 491.428,-72.5693 "/>
<text text-anchor="start" x="350.428" y="-57.3693" font-family="Times,serif" font-size="14.00">_layout</text>
<text text-anchor="start" x="350.428" y="-42.3693" font-family="Times,serif" font-size="14.00">indicate_illegal_request</text>
<text text-anchor="start" x="350.428" y="-27.3693" font-family="Times,serif" font-size="14.00">show_record_not_found</text>
<text text-anchor="start" x="350.428" y="-12.3693" font-family="Times,serif" font-size="14.00">user_params</text>
</g>
<!-- ApplicationController&#45;&gt;UsersController -->
<g id="edge7" class="edge"><title>ApplicationController&#45;&gt;UsersController</title>
<path fill="none" stroke="black" d="M214.23,-75.8916C254.069,-85.7536 302.643,-97.7783 342.253,-107.584"/>
</g>
<!-- HomeController -->
<g id="node10" class="node"><title>HomeController</title>
<path fill="none" stroke="black" d="M169.477,254.194C169.477,254.194 251.477,254.194 251.477,254.194 257.477,254.194 263.477,248.194 263.477,242.194 263.477,242.194 263.477,173.194 263.477,173.194 263.477,167.194 257.477,161.194 251.477,161.194 251.477,161.194 169.477,161.194 169.477,161.194 163.477,161.194 157.477,167.194 157.477,173.194 157.477,173.194 157.477,242.194 157.477,242.194 157.477,248.194 163.477,254.194 169.477,254.194"/>
<text text-anchor="middle" x="210.477" y="176.394" font-family="Times,serif" font-size="14.00">HomeController</text>
<polyline fill="none" stroke="black" points="157.477,184.194 263.477,184.194 "/>
<text text-anchor="start" x="165.477" y="199.394" font-family="Times,serif" font-size="14.00">index</text>
<polyline fill="none" stroke="black" points="157.477,207.194 263.477,207.194 "/>
<polyline fill="none" stroke="black" points="157.477,231.194 263.477,231.194 "/>
<text text-anchor="start" x="165.477" y="246.394" font-family="Times,serif" font-size="14.00">_layout</text>
</g>
<!-- ApplicationController&#45;&gt;HomeController -->
<g id="edge8" class="edge"><title>ApplicationController&#45;&gt;HomeController</title>
<path fill="none" stroke="black" d="M177.533,87.341C184.852,114.079 191.99,140.158 197.741,161.165"/>
</g>
<!-- SessionsController -->
<g id="node11" class="node"><title>SessionsController</title>
<path fill="none" stroke="black" d="M340.914,156.055C340.914,156.055 435.914,156.055 435.914,156.055 441.914,156.055 447.914,150.055 447.914,144.055 447.914,144.055 447.914,45.0553 447.914,45.0553 447.914,39.0553 441.914,33.0553 435.914,33.0553 435.914,33.0553 340.914,33.0553 340.914,33.0553 334.914,33.0553 328.914,39.0553 328.914,45.0553 328.914,45.0553 328.914,144.055 328.914,144.055 328.914,150.055 334.914,156.055 340.914,156.055"/>
<text text-anchor="middle" x="388.414" y="48.2553" font-family="Times,serif" font-size="14.00">SessionsController</text>
<polyline fill="none" stroke="black" points="328.914,56.0553 447.914,56.0553 "/>
<text text-anchor="start" x="336.914" y="71.2553" font-family="Times,serif" font-size="14.00">create</text>
<text text-anchor="start" x="336.914" y="86.2553" font-family="Times,serif" font-size="14.00">destroy</text>
<text text-anchor="start" x="336.914" y="101.255" font-family="Times,serif" font-size="14.00">new</text>
<polyline fill="none" stroke="black" points="328.914,109.055 447.914,109.055 "/>
<polyline fill="none" stroke="black" points="328.914,133.055 447.914,133.055 "/>
<text text-anchor="start" x="336.914" y="148.255" font-family="Times,serif" font-size="14.00">_layout</text>
</g>
<!-- ApplicationController&#45;&gt;SessionsController -->
<g id="edge9" class="edge"><title>ApplicationController&#45;&gt;SessionsController</title>
<path fill="none" stroke="black" d="M214.164,-10.9285C250.854,11.2823 294.221,37.5344 328.512,58.2929"/>
</g>
</g>
</svg>
