<?xml version="1.0" encoding="UTF-8" standalone="no"?>
<!DOCTYPE svg PUBLIC "-//W3C//DTD SVG 1.1//EN"
 "http://www.w3.org/Graphics/SVG/1.1/DTD/svg11.dtd">
<!-- Generated by graphviz version 2.38.0 (20140413.2041)
 -->
<!-- Title: models_diagram Pages: 1 -->
<svg width="798pt" height="793pt"
 viewBox="0.00 0.00 798.32 793.00" xmlns="http://www.w3.org/2000/svg" xmlns:xlink="http://www.w3.org/1999/xlink">
<g id="graph0" class="graph" transform="scale(1 1) rotate(0) translate(4 789)">
<title>models_diagram</title>
<polygon fill="none" stroke="none" points="-4,4 -4,-789 794.325,-789 794.325,4 -4,4"/>
<!-- _diagram_info -->
<g id="node1" class="node"><title>_diagram_info</title>
<text text-anchor="start" x="103.825" y="-770.6" font-family="Times,serif" font-size="13.00">Models diagram</text>
<text text-anchor="start" x="103.825" y="-756.6" font-family="Times,serif" font-size="13.00">Date: Dec 04 2017 &#45; 15:46</text>
<text text-anchor="start" x="103.825" y="-742.6" font-family="Times,serif" font-size="13.00">Migration version: 20171129190421</text>
<text text-anchor="start" x="103.825" y="-728.6" font-family="Times,serif" font-size="13.00">Generated by RailRoady 1.5.3</text>
<text text-anchor="start" x="103.825" y="-714.6" font-family="Times,serif" font-size="13.00">http://railroady.prestonlee.com</text>
</g>
<!-- Feed -->
<g id="node2" class="node"><title>Feed</title>
<path fill="none" stroke="black" d="M407.325,-414C407.325,-414 514.325,-414 514.325,-414 520.325,-414 526.325,-420 526.325,-426 526.325,-426 526.325,-493 526.325,-493 526.325,-499 520.325,-505 514.325,-505 514.325,-505 407.325,-505 407.325,-505 401.325,-505 395.325,-499 395.325,-493 395.325,-493 395.325,-426 395.325,-426 395.325,-420 401.325,-414 407.325,-414"/>
<text text-anchor="middle" x="460.825" y="-489.8" font-family="Times,serif" font-size="14.00">Feed</text>
<polyline fill="none" stroke="black" points="395.325,-482 526.325,-482 "/>
<text text-anchor="start" x="403.325" y="-466.8" font-family="Times,serif" font-size="14.00">id :INTEGER</text>
<text text-anchor="start" x="403.325" y="-451.8" font-family="Times,serif" font-size="14.00">name :varchar</text>
<text text-anchor="start" x="403.325" y="-436.8" font-family="Times,serif" font-size="14.00">created_at :datetime</text>
<text text-anchor="start" x="403.325" y="-421.8" font-family="Times,serif" font-size="14.00">updated_at :datetime</text>
</g>
<!-- Broadcast -->
<g id="node4" class="node"><title>Broadcast</title>
<path fill="none" stroke="black" d="M299.325,-218.5C299.325,-218.5 406.325,-218.5 406.325,-218.5 412.325,-218.5 418.325,-224.5 418.325,-230.5 418.325,-230.5 418.325,-312.5 418.325,-312.5 418.325,-318.5 412.325,-324.5 406.325,-324.5 406.325,-324.5 299.325,-324.5 299.325,-324.5 293.325,-324.5 287.325,-318.5 287.325,-312.5 287.325,-312.5 287.325,-230.5 287.325,-230.5 287.325,-224.5 293.325,-218.5 299.325,-218.5"/>
<text text-anchor="middle" x="352.825" y="-309.3" font-family="Times,serif" font-size="14.00">Broadcast</text>
<polyline fill="none" stroke="black" points="287.325,-301.5 418.325,-301.5 "/>
<text text-anchor="start" x="295.325" y="-286.3" font-family="Times,serif" font-size="14.00">id :INTEGER</text>
<text text-anchor="start" x="295.325" y="-271.3" font-family="Times,serif" font-size="14.00">content :text</text>
<text text-anchor="start" x="295.325" y="-256.3" font-family="Times,serif" font-size="14.00">user_id :integer</text>
<text text-anchor="start" x="295.325" y="-241.3" font-family="Times,serif" font-size="14.00">created_at :datetime</text>
<text text-anchor="start" x="295.325" y="-226.3" font-family="Times,serif" font-size="14.00">updated_at :datetime</text>
</g>
<!-- Feed&#45;&gt;Broadcast -->
<g id="edge1" class="edge"><title>Feed&#45;&gt;Broadcast</title>
<path fill="none" stroke="#3ee53d" d="M429.884,-405.213C416.852,-382.77 401.615,-356.527 388.146,-333.33"/>
<polygon fill="#3ee53d" stroke="#3ee53d" points="429.935,-405.3 431.064,-416.208 432.445,-409.624 434.956,-413.948 434.956,-413.948 434.956,-413.948 432.445,-409.624 438.848,-411.689 429.935,-405.3 429.935,-405.3"/>
<polygon fill="#3ee53d" stroke="#3ee53d" points="388.1,-333.251 386.97,-322.344 385.589,-328.927 383.078,-324.603 383.078,-324.603 383.078,-324.603 385.589,-328.927 379.187,-326.863 388.1,-333.251 388.1,-333.251"/>
</g>
<!-- ReadComment -->
<g id="node3" class="node"><title>ReadComment</title>
<path fill="none" stroke="black" d="M214.325,-579.5C214.325,-579.5 321.325,-579.5 321.325,-579.5 327.325,-579.5 333.325,-585.5 333.325,-591.5 333.325,-591.5 333.325,-658.5 333.325,-658.5 333.325,-664.5 327.325,-670.5 321.325,-670.5 321.325,-670.5 214.325,-670.5 214.325,-670.5 208.325,-670.5 202.325,-664.5 202.325,-658.5 202.325,-658.5 202.325,-591.5 202.325,-591.5 202.325,-585.5 208.325,-579.5 214.325,-579.5"/>
<text text-anchor="middle" x="267.825" y="-655.3" font-family="Times,serif" font-size="14.00">ReadComment</text>
<polyline fill="none" stroke="black" points="202.325,-647.5 333.325,-647.5 "/>
<text text-anchor="start" x="210.325" y="-632.3" font-family="Times,serif" font-size="14.00">id :INTEGER</text>
<text text-anchor="start" x="210.325" y="-617.3" font-family="Times,serif" font-size="14.00">user_id :integer</text>
<text text-anchor="start" x="210.325" y="-602.3" font-family="Times,serif" font-size="14.00">post_id :integer</text>
<text text-anchor="start" x="210.325" y="-587.3" font-family="Times,serif" font-size="14.00">comment_id :integer</text>
</g>
<!-- Post -->
<g id="node5" class="node"><title>Post</title>
<path fill="none" stroke="black" d="M73.3247,-203.5C73.3247,-203.5 180.325,-203.5 180.325,-203.5 186.325,-203.5 192.325,-209.5 192.325,-215.5 192.325,-215.5 192.325,-327.5 192.325,-327.5 192.325,-333.5 186.325,-339.5 180.325,-339.5 180.325,-339.5 73.3247,-339.5 73.3247,-339.5 67.3247,-339.5 61.3247,-333.5 61.3247,-327.5 61.3247,-327.5 61.3247,-215.5 61.3247,-215.5 61.3247,-209.5 67.3247,-203.5 73.3247,-203.5"/>
<text text-anchor="middle" x="126.825" y="-324.3" font-family="Times,serif" font-size="14.00">Post</text>
<polyline fill="none" stroke="black" points="61.3247,-316.5 192.325,-316.5 "/>
<text text-anchor="start" x="69.3247" y="-301.3" font-family="Times,serif" font-size="14.00">id :INTEGER</text>
<text text-anchor="start" x="69.3247" y="-286.3" font-family="Times,serif" font-size="14.00">title :varchar</text>
<text text-anchor="start" x="69.3247" y="-271.3" font-family="Times,serif" font-size="14.00">body :text</text>
<text text-anchor="start" x="69.3247" y="-256.3" font-family="Times,serif" font-size="14.00">is_anon :boolean</text>
<text text-anchor="start" x="69.3247" y="-241.3" font-family="Times,serif" font-size="14.00">user_id :integer</text>
<text text-anchor="start" x="69.3247" y="-226.3" font-family="Times,serif" font-size="14.00">created_at :datetime</text>
<text text-anchor="start" x="69.3247" y="-211.3" font-family="Times,serif" font-size="14.00">updated_at :datetime</text>
</g>
<!-- ReadComment&#45;&gt;Post -->
<g id="edge4" class="edge"><title>ReadComment&#45;&gt;Post</title>
<path fill="none" stroke="#56900b" d="M222.704,-572.971C215.702,-563.438 209.065,-553.241 203.825,-543 172.349,-481.493 152.143,-405.336 140.366,-349.516"/>
<ellipse fill="none" stroke="#56900b" cx="225.188" cy="-576.263" rx="4.00002" ry="4.00002"/>
<polygon fill="#56900b" stroke="#56900b" points="140.359,-349.482 142.742,-338.779 139.347,-344.586 138.335,-339.689 138.335,-339.689 138.335,-339.689 139.347,-344.586 133.928,-340.6 140.359,-349.482 140.359,-349.482"/>
</g>
<!-- User -->
<g id="node6" class="node"><title>User</title>
<path fill="none" stroke="black" d="M258.325,-376.5C258.325,-376.5 365.325,-376.5 365.325,-376.5 371.325,-376.5 377.325,-382.5 377.325,-388.5 377.325,-388.5 377.325,-530.5 377.325,-530.5 377.325,-536.5 371.325,-542.5 365.325,-542.5 365.325,-542.5 258.325,-542.5 258.325,-542.5 252.325,-542.5 246.325,-536.5 246.325,-530.5 246.325,-530.5 246.325,-388.5 246.325,-388.5 246.325,-382.5 252.325,-376.5 258.325,-376.5"/>
<text text-anchor="middle" x="311.825" y="-527.3" font-family="Times,serif" font-size="14.00">User</text>
<polyline fill="none" stroke="black" points="246.325,-519.5 377.325,-519.5 "/>
<text text-anchor="start" x="254.325" y="-504.3" font-family="Times,serif" font-size="14.00">id :INTEGER</text>
<text text-anchor="start" x="254.325" y="-489.3" font-family="Times,serif" font-size="14.00">surname :varchar</text>
<text text-anchor="start" x="254.325" y="-474.3" font-family="Times,serif" font-size="14.00">firstname :varchar</text>
<text text-anchor="start" x="254.325" y="-459.3" font-family="Times,serif" font-size="14.00">phone :varchar</text>
<text text-anchor="start" x="254.325" y="-444.3" font-family="Times,serif" font-size="14.00">grad_year :integer</text>
<text text-anchor="start" x="254.325" y="-429.3" font-family="Times,serif" font-size="14.00">jobs :boolean</text>
<text text-anchor="start" x="254.325" y="-414.3" font-family="Times,serif" font-size="14.00">email :varchar</text>
<text text-anchor="start" x="254.325" y="-399.3" font-family="Times,serif" font-size="14.00">created_at :datetime</text>
<text text-anchor="start" x="254.325" y="-384.3" font-family="Times,serif" font-size="14.00">updated_at :datetime</text>
</g>
<!-- ReadComment&#45;&gt;User -->
<g id="edge3" class="edge"><title>ReadComment&#45;&gt;User</title>
<path fill="none" stroke="#b0aab9" d="M281.988,-571.372C283.618,-565.314 285.314,-559.011 287.033,-552.622"/>
<ellipse fill="none" stroke="#b0aab9" cx="280.887" cy="-575.46" rx="4.00001" ry="4.00001"/>
<polygon fill="#b0aab9" stroke="#b0aab9" points="287.149,-552.191 294.094,-543.704 288.449,-547.363 289.748,-542.534 289.748,-542.534 289.748,-542.534 288.449,-547.363 285.403,-541.365 287.149,-552.191 287.149,-552.191"/>
</g>
<!-- Comment -->
<g id="node12" class="node"><title>Comment</title>
<path fill="none" stroke="black" d="M120.325,-0.5C120.325,-0.5 227.325,-0.5 227.325,-0.5 233.325,-0.5 239.325,-6.5 239.325,-12.5 239.325,-12.5 239.325,-154.5 239.325,-154.5 239.325,-160.5 233.325,-166.5 227.325,-166.5 227.325,-166.5 120.325,-166.5 120.325,-166.5 114.325,-166.5 108.325,-160.5 108.325,-154.5 108.325,-154.5 108.325,-12.5 108.325,-12.5 108.325,-6.5 114.325,-0.5 120.325,-0.5"/>
<text text-anchor="middle" x="173.825" y="-151.3" font-family="Times,serif" font-size="14.00">Comment</text>
<polyline fill="none" stroke="black" points="108.325,-143.5 239.325,-143.5 "/>
<text text-anchor="start" x="116.325" y="-128.3" font-family="Times,serif" font-size="14.00">id :INTEGER</text>
<text text-anchor="start" x="116.325" y="-113.3" font-family="Times,serif" font-size="14.00">title :varchar</text>
<text text-anchor="start" x="116.325" y="-98.3" font-family="Times,serif" font-size="14.00">body :text</text>
<text text-anchor="start" x="116.325" y="-83.3" font-family="Times,serif" font-size="14.00">is_anon :boolean</text>
<text text-anchor="start" x="116.325" y="-68.3" font-family="Times,serif" font-size="14.00">parent_id :integer</text>
<text text-anchor="start" x="116.325" y="-53.3" font-family="Times,serif" font-size="14.00">post_id :integer</text>
<text text-anchor="start" x="116.325" y="-38.3" font-family="Times,serif" font-size="14.00">user_id :integer</text>
<text text-anchor="start" x="116.325" y="-23.3" font-family="Times,serif" font-size="14.00">created_at :datetime</text>
<text text-anchor="start" x="116.325" y="-8.3" font-family="Times,serif" font-size="14.00">updated_at :datetime</text>
</g>
<!-- ReadComment&#45;&gt;Comment -->
<g id="edge5" class="edge"><title>ReadComment&#45;&gt;Comment</title>
<path fill="none" stroke="#4a00eb" d="M245.473,-571.497C242.141,-562.137 239.075,-552.38 236.825,-543 201.368,-395.239 225.747,-352.898 200.825,-203 199.404,-194.456 197.745,-185.604 195.96,-176.764"/>
<ellipse fill="none" stroke="#4a00eb" cx="246.942" cy="-575.493" rx="4.00001" ry="4.00001"/>
<polygon fill="#4a00eb" stroke="#4a00eb" points="195.925,-176.598 198.304,-165.893 194.911,-171.702 193.897,-166.806 193.897,-166.806 193.897,-166.806 194.911,-171.702 189.491,-167.718 195.925,-176.598 195.925,-176.598"/>
</g>
<!-- Post&#45;&gt;Comment -->
<g id="edge8" class="edge"><title>Post&#45;&gt;Comment</title>
<path fill="none" stroke="#dc7837" d="M145.78,-195.486C147.346,-189.289 148.94,-182.981 150.533,-176.677"/>
<ellipse fill="none" stroke="#dc7837" cx="144.773" cy="-199.472" rx="4.00001" ry="4.00001"/>
<polygon fill="#dc7837" stroke="#dc7837" points="150.58,-176.488 157.393,-167.895 151.805,-171.641 153.03,-166.793 153.03,-166.793 153.03,-166.793 151.805,-171.641 148.667,-165.691 150.58,-176.488 150.58,-176.488"/>
</g>
<!-- User&#45;&gt;Broadcast -->
<g id="edge12" class="edge"><title>User&#45;&gt;Broadcast</title>
<path fill="none" stroke="#2e192a" d="M331.662,-368.506C334.208,-356.956 336.767,-345.345 339.183,-334.385"/>
<ellipse fill="none" stroke="#2e192a" cx="330.788" cy="-372.47" rx="4.00001" ry="4.00001"/>
<polygon fill="#2e192a" stroke="#2e192a" points="339.204,-334.289 345.752,-325.493 340.281,-329.407 341.357,-324.524 341.357,-324.524 341.357,-324.524 340.281,-329.407 336.963,-323.555 339.204,-334.289 339.204,-334.289"/>
</g>
<!-- User&#45;&gt;Post -->
<g id="edge13" class="edge"><title>User&#45;&gt;Post</title>
<path fill="none" stroke="#3bcd60" d="M240.308,-386.597C226.994,-373.21 213.067,-359.208 199.711,-345.781"/>
<ellipse fill="none" stroke="#3bcd60" cx="243.259" cy="-389.564" rx="4.00002" ry="4.00002"/>
<polygon fill="#3bcd60" stroke="#3bcd60" points="199.41,-345.478 195.549,-335.214 195.884,-341.933 192.358,-338.387 192.358,-338.387 192.358,-338.387 195.884,-341.933 189.167,-341.561 199.41,-345.478 199.41,-345.478"/>
</g>
<!-- Image -->
<g id="node10" class="node"><title>Image</title>
<path fill="none" stroke="black" d="M448.825,-211C448.825,-211 596.825,-211 596.825,-211 602.825,-211 608.825,-217 608.825,-223 608.825,-223 608.825,-320 608.825,-320 608.825,-326 602.825,-332 596.825,-332 596.825,-332 448.825,-332 448.825,-332 442.825,-332 436.825,-326 436.825,-320 436.825,-320 436.825,-223 436.825,-223 436.825,-217 442.825,-211 448.825,-211"/>
<text text-anchor="middle" x="522.825" y="-316.8" font-family="Times,serif" font-size="14.00">Image</text>
<polyline fill="none" stroke="black" points="436.825,-309 608.825,-309 "/>
<text text-anchor="start" x="444.825" y="-293.8" font-family="Times,serif" font-size="14.00">id :INTEGER</text>
<text text-anchor="start" x="444.825" y="-278.8" font-family="Times,serif" font-size="14.00">user_id :integer</text>
<text text-anchor="start" x="444.825" y="-263.8" font-family="Times,serif" font-size="14.00">photo_file_name :varchar</text>
<text text-anchor="start" x="444.825" y="-248.8" font-family="Times,serif" font-size="14.00">photo_content_type :varchar</text>
<text text-anchor="start" x="444.825" y="-233.8" font-family="Times,serif" font-size="14.00">photo_file_size :integer</text>
<text text-anchor="start" x="444.825" y="-218.8" font-family="Times,serif" font-size="14.00">photo_updated_at :datetime</text>
</g>
<!-- User&#45;&gt;Image -->
<g id="edge10" class="edge"><title>User&#45;&gt;Image</title>
<path fill="none" stroke="#2f21e9" d="M383.288,-379.283C384.468,-378.174 385.647,-377.079 386.825,-376 401.309,-362.728 417.398,-349.398 433.294,-336.927"/>
<ellipse fill="none" stroke="#2f21e9" cx="380.277" cy="-382.167" rx="4.00002" ry="4.00002"/>
<ellipse fill="#2f21e9" stroke="#2f21e9" cx="436.453" cy="-334.467" rx="4.00002" ry="4.00002"/>
</g>
<!-- UserDetail -->
<g id="node11" class="node"><title>UserDetail</title>
<path fill="none" stroke="black" d="M639.325,-218.5C639.325,-218.5 778.325,-218.5 778.325,-218.5 784.325,-218.5 790.325,-224.5 790.325,-230.5 790.325,-230.5 790.325,-312.5 790.325,-312.5 790.325,-318.5 784.325,-324.5 778.325,-324.5 778.325,-324.5 639.325,-324.5 639.325,-324.5 633.325,-324.5 627.325,-318.5 627.325,-312.5 627.325,-312.5 627.325,-230.5 627.325,-230.5 627.325,-224.5 633.325,-218.5 639.325,-218.5"/>
<text text-anchor="middle" x="708.825" y="-309.3" font-family="Times,serif" font-size="14.00">UserDetail</text>
<polyline fill="none" stroke="black" points="627.325,-301.5 790.325,-301.5 "/>
<text text-anchor="start" x="635.325" y="-286.3" font-family="Times,serif" font-size="14.00">id :INTEGER</text>
<text text-anchor="start" x="635.325" y="-271.3" font-family="Times,serif" font-size="14.00">login :varchar</text>
<text text-anchor="start" x="635.325" y="-256.3" font-family="Times,serif" font-size="14.00">salt :varchar</text>
<text text-anchor="start" x="635.325" y="-241.3" font-family="Times,serif" font-size="14.00">crypted_password :varchar</text>
<text text-anchor="start" x="635.325" y="-226.3" font-family="Times,serif" font-size="14.00">user_id :integer</text>
</g>
<!-- User&#45;&gt;UserDetail -->
<g id="edge11" class="edge"><title>User&#45;&gt;UserDetail</title>
<path fill="none" stroke="#61c010" d="M384.82,-377.109C385.485,-376.731 386.154,-376.361 386.825,-376 478.318,-326.752 521.976,-380.118 617.825,-340 625.173,-336.924 632.475,-333.132 639.559,-328.927"/>
<ellipse fill="none" stroke="#61c010" cx="381.21" cy="-379.343" rx="4.00002" ry="4.00002"/>
<ellipse fill="#61c010" stroke="#61c010" cx="643.163" cy="-326.7" rx="4.00002" ry="4.00002"/>
</g>
<!-- User&#45;&gt;Comment -->
<g id="edge14" class="edge"><title>User&#45;&gt;Comment</title>
<path fill="none" stroke="#c3a95f" d="M285.625,-368.666C265.914,-301.585 241.239,-218.872 234.825,-203 231.216,-194.07 227.168,-184.911 222.919,-175.834"/>
<ellipse fill="none" stroke="#c3a95f" cx="286.754" cy="-372.51" rx="4.00001" ry="4.00001"/>
<polygon fill="#c3a95f" stroke="#c3a95f" points="222.914,-175.823 222.675,-164.86 220.763,-171.309 218.612,-166.796 218.612,-166.796 218.612,-166.796 220.763,-171.309 214.55,-168.731 222.914,-175.823 222.914,-175.823"/>
</g>
<!-- BroadcastService -->
<g id="node7" class="node"><title>BroadcastService</title>
<polygon fill="none" stroke="black" points="500.325,-723 500.325,-769 611.325,-769 611.325,-723 500.325,-723"/>
<text text-anchor="middle" x="555.825" y="-753.8" font-family="Times,serif" font-size="14.00">BroadcastService</text>
<polyline fill="none" stroke="black" points="500.325,-746 611.325,-746 "/>
<text text-anchor="middle" x="555.825" y="-730.8" font-family="Times,serif" font-size="14.00"> </text>
</g>
<!-- ImageService -->
<g id="node8" class="node"><title>ImageService</title>
<polygon fill="none" stroke="black" points="629.825,-723 629.825,-769 721.825,-769 721.825,-723 629.825,-723"/>
<text text-anchor="middle" x="675.825" y="-753.8" font-family="Times,serif" font-size="14.00">ImageService</text>
<polyline fill="none" stroke="black" points="629.825,-746 721.825,-746 "/>
<text text-anchor="middle" x="675.825" y="-730.8" font-family="Times,serif" font-size="14.00"> </text>
</g>
<!-- ApplicationRecord -->
<g id="node9" class="node"><title>ApplicationRecord</title>
<ellipse fill="none" stroke="black" cx="404.825" cy="-746" rx="77.1866" ry="18"/>
<text text-anchor="middle" x="404.825" y="-742.3" font-family="Times,serif" font-size="14.00">ApplicationRecord</text>
</g>
<!-- ApplicationRecord&#45;&gt;Feed -->
<g id="edge2" class="edge"><title>ApplicationRecord&#45;&gt;Feed</title>
<path fill="none" stroke="black" d="M408.243,-727.632C416.816,-684.079 439.44,-569.142 452.039,-505.135"/>
</g>
<!-- ApplicationRecord&#45;&gt;ReadComment -->
<g id="edge6" class="edge"><title>ApplicationRecord&#45;&gt;ReadComment</title>
<path fill="none" stroke="black" d="M385.775,-728.454C368.571,-713.51 342.455,-690.825 319.167,-670.597"/>
</g>
<!-- ApplicationRecord&#45;&gt;Broadcast -->
<g id="edge7" class="edge"><title>ApplicationRecord&#45;&gt;Broadcast</title>
<path fill="none" stroke="black" d="M420.758,-728.379C471.498,-673.413 621.085,-494.293 535.825,-376 506.24,-334.954 471.549,-365.459 427.825,-340 420.255,-335.593 412.782,-330.332 405.656,-324.719"/>
</g>
<!-- ApplicationRecord&#45;&gt;Post -->
<g id="edge9" class="edge"><title>ApplicationRecord&#45;&gt;Post</title>
<path fill="none" stroke="black" d="M372.585,-729.491C356.624,-722.139 336.937,-713.554 318.825,-707 264.059,-687.184 235.765,-710.346 192.825,-671 101.568,-587.382 104.773,-429.64 115.564,-339.732"/>
</g>
<!-- ApplicationRecord&#45;&gt;User -->
<g id="edge15" class="edge"><title>ApplicationRecord&#45;&gt;User</title>
<path fill="none" stroke="black" d="M399.147,-727.632C387.395,-691.68 359.742,-607.085 338.678,-542.649"/>
</g>
<!-- ApplicationRecord&#45;&gt;Image -->
<g id="edge16" class="edge"><title>ApplicationRecord&#45;&gt;Image</title>
<path fill="none" stroke="black" d="M437.61,-729.391C461.356,-716.619 492.696,-696.52 512.825,-671 550.549,-623.172 550.751,-602.9 561.825,-543 575.317,-470.014 575.126,-449.021 561.825,-376 559.175,-361.454 554.591,-346.294 549.476,-332.207"/>
</g>
<!-- ApplicationRecord&#45;&gt;UserDetail -->
<g id="edge17" class="edge"><title>ApplicationRecord&#45;&gt;UserDetail</title>
<path fill="none" stroke="black" d="M440.638,-729.913C477.714,-713.708 532.345,-688 547.825,-671 640.512,-569.207 683.225,-407.153 699.854,-324.571"/>
</g>
<!-- ApplicationRecord&#45;&gt;Comment -->
<g id="edge18" class="edge"><title>ApplicationRecord&#45;&gt;Comment</title>
<path fill="none" stroke="black" d="M374.027,-729.362C357.919,-721.708 337.675,-712.896 318.825,-707 238.046,-681.735 193.061,-729.426 131.825,-671 -20.8487,-525.333 -30.3444,-397.362 51.8247,-203 63.7249,-174.851 85.9443,-150.094 108.194,-130.587"/>
</g>
</g>
</svg>
