<?xml version="1.0" encoding="UTF-8" standalone="no"?>
<!DOCTYPE svg PUBLIC "-//W3C//DTD SVG 1.1//EN"
 "http://www.w3.org/Graphics/SVG/1.1/DTD/svg11.dtd">
<!-- Generated by graphviz version 2.38.0 (20140413.2041)
 -->
<!-- Title: models_diagram Pages: 1 -->
<svg width="634pt" height="374pt"
 viewBox="0.00 0.00 634.00 374.00" xmlns="http://www.w3.org/2000/svg" xmlns:xlink="http://www.w3.org/1999/xlink">
<g id="graph0" class="graph" transform="scale(1 1) rotate(0) translate(4 370)">
<title>models_diagram</title>
<polygon fill="none" stroke="none" points="-4,4 -4,-370 630,-370 630,4 -4,4"/>
<!-- _diagram_info -->
<g id="node1" class="node"><title>_diagram_info</title>
<text text-anchor="start" x="8" y="-351.6" font-family="Times,serif" font-size="13.00">Models diagram</text>
<text text-anchor="start" x="8" y="-337.6" font-family="Times,serif" font-size="13.00">Date: Dec 04 2017 &#45; 15:46</text>
<text text-anchor="start" x="8" y="-323.6" font-family="Times,serif" font-size="13.00">Migration version: 20171129190421</text>
<text text-anchor="start" x="8" y="-309.6" font-family="Times,serif" font-size="13.00">Generated by RailRoady 1.5.3</text>
<text text-anchor="start" x="8" y="-295.6" font-family="Times,serif" font-size="13.00">http://railroady.prestonlee.com</text>
</g>
<!-- Feed -->
<g id="node2" class="node"><title>Feed</title>
<ellipse fill="none" stroke="black" cx="310" cy="-162" rx="27.8951" ry="18"/>
<text text-anchor="middle" x="310" y="-158.3" font-family="Times,serif" font-size="14.00">Feed</text>
</g>
<!-- Broadcast -->
<g id="node4" class="node"><title>Broadcast</title>
<ellipse fill="none" stroke="black" cx="294" cy="-90" rx="46.2923" ry="18"/>
<text text-anchor="middle" x="294" y="-86.3" font-family="Times,serif" font-size="14.00">Broadcast</text>
</g>
<!-- Feed&#45;&gt;Broadcast -->
<g id="edge1" class="edge"><title>Feed&#45;&gt;Broadcast</title>
<path fill="none" stroke="#976b41" d="M303.895,-134.29C302.68,-128.975 301.403,-123.388 300.185,-118.061"/>
<polygon fill="#976b41" stroke="#976b41" points="303.899,-134.306 301.74,-145.058 305.013,-139.181 306.127,-144.055 306.127,-144.055 306.127,-144.055 305.013,-139.181 310.514,-143.052 303.899,-134.306 303.899,-134.306"/>
<polygon fill="#976b41" stroke="#976b41" points="300.177,-118.024 302.336,-107.273 299.063,-113.15 297.949,-108.275 297.949,-108.275 297.949,-108.275 299.063,-113.15 293.562,-109.278 300.177,-118.024 300.177,-118.024"/>
</g>
<!-- ReadComment -->
<g id="node3" class="node"><title>ReadComment</title>
<ellipse fill="none" stroke="black" cx="198" cy="-234" rx="64.189" ry="18"/>
<text text-anchor="middle" x="198" y="-230.3" font-family="Times,serif" font-size="14.00">ReadComment</text>
</g>
<!-- Post -->
<g id="node5" class="node"><title>Post</title>
<ellipse fill="none" stroke="black" cx="127" cy="-90" rx="27" ry="18"/>
<text text-anchor="middle" x="127" y="-86.3" font-family="Times,serif" font-size="14.00">Post</text>
</g>
<!-- ReadComment&#45;&gt;Post -->
<g id="edge4" class="edge"><title>ReadComment&#45;&gt;Post</title>
<path fill="none" stroke="#a833d2" d="M183.764,-208.842C178.629,-199.873 172.896,-189.557 168,-180 157.268,-159.048 146.159,-134.743 138.216,-116.832"/>
<ellipse fill="none" stroke="#a833d2" cx="185.905" cy="-212.548" rx="4.00002" ry="4.00002"/>
<polygon fill="#a833d2" stroke="#a833d2" points="138.181,-116.753 138.27,-105.787 136.166,-112.177 134.151,-107.6 134.151,-107.6 134.151,-107.6 136.166,-112.177 130.033,-109.414 138.181,-116.753 138.181,-116.753"/>
</g>
<!-- User -->
<g id="node6" class="node"><title>User</title>
<ellipse fill="none" stroke="black" cx="237" cy="-162" rx="27.0966" ry="18"/>
<text text-anchor="middle" x="237" y="-158.3" font-family="Times,serif" font-size="14.00">User</text>
</g>
<!-- ReadComment&#45;&gt;User -->
<g id="edge3" class="edge"><title>ReadComment&#45;&gt;User</title>
<path fill="none" stroke="#fc656c" d="M211.433,-208.889C215.174,-202.175 219.245,-194.867 223.017,-188.098"/>
<ellipse fill="none" stroke="#fc656c" cx="209.388" cy="-212.561" rx="4.00002" ry="4.00002"/>
<polygon fill="#fc656c" stroke="#fc656c" points="223.048,-188.043 231.846,-181.497 225.481,-183.675 227.915,-179.307 227.915,-179.307 227.915,-179.307 225.481,-183.675 223.984,-177.117 223.048,-188.043 223.048,-188.043"/>
</g>
<!-- Comment -->
<g id="node12" class="node"><title>Comment</title>
<ellipse fill="none" stroke="black" cx="154" cy="-18" rx="46.2923" ry="18"/>
<text text-anchor="middle" x="154" y="-14.3" font-family="Times,serif" font-size="14.00">Comment</text>
</g>
<!-- ReadComment&#45;&gt;Comment -->
<g id="edge5" class="edge"><title>ReadComment&#45;&gt;Comment</title>
<path fill="none" stroke="#c0b0b4" d="M192.848,-207.945C184.529,-167.483 168.202,-88.072 159.603,-46.2493"/>
<ellipse fill="none" stroke="#c0b0b4" cx="193.668" cy="-211.931" rx="4.00001" ry="4.00001"/>
<polygon fill="#c0b0b4" stroke="#c0b0b4" points="159.557,-46.0276 161.951,-35.3261 158.55,-41.13 157.543,-36.2325 157.543,-36.2325 157.543,-36.2325 158.55,-41.13 153.135,-37.1388 159.557,-46.0276 159.557,-46.0276"/>
</g>
<!-- Post&#45;&gt;Comment -->
<g id="edge8" class="edge"><title>Post&#45;&gt;Comment</title>
<path fill="none" stroke="#2bc97c" d="M136.343,-64.7779C138.747,-58.544 141.347,-51.8046 143.793,-45.4634"/>
<ellipse fill="none" stroke="#2bc97c" cx="134.838" cy="-68.679" rx="4.00001" ry="4.00001"/>
<polygon fill="#2bc97c" stroke="#2bc97c" points="143.861,-45.2862 151.658,-37.5757 145.66,-40.6212 147.46,-35.9562 147.46,-35.9562 147.46,-35.9562 145.66,-40.6212 143.261,-34.3368 143.861,-45.2862 143.861,-45.2862"/>
</g>
<!-- User&#45;&gt;Broadcast -->
<g id="edge12" class="edge"><title>User&#45;&gt;Broadcast</title>
<path fill="none" stroke="#cd2592" d="M254.595,-139.392C260.713,-131.879 267.62,-123.396 273.923,-115.655"/>
<ellipse fill="none" stroke="#cd2592" cx="251.894" cy="-142.709" rx="4.00002" ry="4.00002"/>
<polygon fill="#cd2592" stroke="#cd2592" points="274.146,-115.382 283.95,-110.469 277.303,-111.505 280.46,-107.628 280.46,-107.628 280.46,-107.628 277.303,-111.505 276.971,-104.786 274.146,-115.382 274.146,-115.382"/>
</g>
<!-- User&#45;&gt;Post -->
<g id="edge13" class="edge"><title>User&#45;&gt;Post</title>
<path fill="none" stroke="#848c40" d="M210.835,-144.35C193.837,-133.533 171.716,-119.456 154.465,-108.478"/>
<ellipse fill="none" stroke="#848c40" cx="214.465" cy="-146.659" rx="4.00002" ry="4.00002"/>
<polygon fill="#848c40" stroke="#848c40" points="154.378,-108.422 148.357,-99.2569 150.159,-105.738 145.941,-103.053 145.941,-103.053 145.941,-103.053 150.159,-105.738 143.525,-106.85 154.378,-108.422 154.378,-108.422"/>
</g>
<!-- Image -->
<g id="node10" class="node"><title>Image</title>
<ellipse fill="none" stroke="black" cx="391" cy="-90" rx="33.2948" ry="18"/>
<text text-anchor="middle" x="391" y="-86.3" font-family="Times,serif" font-size="14.00">Image</text>
</g>
<!-- User&#45;&gt;Image -->
<g id="edge10" class="edge"><title>User&#45;&gt;Image</title>
<path fill="none" stroke="#328e2e" d="M266.314,-147.101C268.574,-146.046 270.822,-145.003 273,-144 301.897,-130.689 334.948,-115.88 358.706,-105.307"/>
<ellipse fill="none" stroke="#328e2e" cx="262.292" cy="-148.987" rx="4.00002" ry="4.00002"/>
<ellipse fill="#328e2e" stroke="#328e2e" cx="362.42" cy="-103.655" rx="4.00002" ry="4.00002"/>
</g>
<!-- UserDetail -->
<g id="node11" class="node"><title>UserDetail</title>
<ellipse fill="none" stroke="black" cx="491" cy="-90" rx="48.9926" ry="18"/>
<text text-anchor="middle" x="491" y="-86.3" font-family="Times,serif" font-size="14.00">UserDetail</text>
</g>
<!-- User&#45;&gt;UserDetail -->
<g id="edge11" class="edge"><title>User&#45;&gt;UserDetail</title>
<path fill="none" stroke="#cc57d4" d="M265.453,-146.871C267.977,-145.829 270.516,-144.854 273,-144 341.926,-120.295 362.435,-126.26 433,-108 437.49,-106.838 442.159,-105.57 446.811,-104.268"/>
<ellipse fill="none" stroke="#cc57d4" cx="261.661" cy="-148.533" rx="4.00002" ry="4.00002"/>
<ellipse fill="#cc57d4" stroke="#cc57d4" cx="450.742" cy="-103.151" rx="4.00001" ry="4.00001"/>
</g>
<!-- User&#45;&gt;Comment -->
<g id="edge14" class="edge"><title>User&#45;&gt;Comment</title>
<path fill="none" stroke="#9d5fe3" d="M227.544,-136.435C220.049,-118.1 208.742,-92.7405 196,-72 189.946,-62.1452 182.331,-52.0263 175.254,-43.306"/>
<ellipse fill="none" stroke="#9d5fe3" cx="229.221" cy="-140.612" rx="4.00001" ry="4.00001"/>
<polygon fill="#9d5fe3" stroke="#9d5fe3" points="175.096,-43.1164 172.161,-32.5506 171.899,-39.2723 168.702,-35.4282 168.702,-35.4282 168.702,-35.4282 171.899,-39.2723 165.242,-38.3057 175.096,-43.1164 175.096,-43.1164"/>
</g>
<!-- BroadcastService -->
<g id="node7" class="node"><title>BroadcastService</title>
<polygon fill="none" stroke="black" points="515.5,-345 404.5,-345 404.5,-309 515.5,-309 515.5,-345"/>
<text text-anchor="middle" x="460" y="-323.3" font-family="Times,serif" font-size="14.00">BroadcastService</text>
</g>
<!-- ImageService -->
<g id="node8" class="node"><title>ImageService</title>
<polygon fill="none" stroke="black" points="626,-345 534,-345 534,-309 626,-309 626,-345"/>
<text text-anchor="middle" x="580" y="-323.3" font-family="Times,serif" font-size="14.00">ImageService</text>
</g>
<!-- ApplicationRecord -->
<g id="node9" class="node"><title>ApplicationRecord</title>
<ellipse fill="none" stroke="black" cx="309" cy="-327" rx="77.1866" ry="18"/>
<text text-anchor="middle" x="309" y="-323.3" font-family="Times,serif" font-size="14.00">ApplicationRecord</text>
</g>
<!-- ApplicationRecord&#45;&gt;Feed -->
<g id="edge2" class="edge"><title>ApplicationRecord&#45;&gt;Feed</title>
<path fill="none" stroke="black" d="M309.105,-308.864C309.297,-277.64 309.701,-211.812 309.893,-180.397"/>
</g>
<!-- ApplicationRecord&#45;&gt;ReadComment -->
<g id="edge6" class="edge"><title>ApplicationRecord&#45;&gt;ReadComment</title>
<path fill="none" stroke="black" d="M288.899,-309.521C268.782,-293.028 238.016,-267.806 217.952,-251.357"/>
</g>
<!-- ApplicationRecord&#45;&gt;Broadcast -->
<g id="edge7" class="edge"><title>ApplicationRecord&#45;&gt;Broadcast</title>
<path fill="none" stroke="black" d="M318.963,-309.071C336.961,-276.157 370.902,-201.705 347,-144 340.626,-128.612 327.376,-115.362 315.719,-105.959"/>
</g>
<!-- ApplicationRecord&#45;&gt;Post -->
<g id="edge9" class="edge"><title>ApplicationRecord&#45;&gt;Post</title>
<path fill="none" stroke="black" d="M275.722,-310.701C259.859,-303.562 240.555,-295.095 223,-288 179.979,-270.614 151.558,-290.049 125,-252 94.2812,-207.99 110.766,-139.432 120.928,-107.904"/>
</g>
<!-- ApplicationRecord&#45;&gt;User -->
<g id="edge15" class="edge"><title>ApplicationRecord&#45;&gt;User</title>
<path fill="none" stroke="black" d="M304.416,-308.727C298.243,-286.629 286.251,-247.451 271,-216 264.608,-202.819 255.593,-188.916 248.451,-178.657"/>
</g>
<!-- ApplicationRecord&#45;&gt;Image -->
<g id="edge16" class="edge"><title>ApplicationRecord&#45;&gt;Image</title>
<path fill="none" stroke="black" d="M324.478,-309.104C336.604,-294.909 352.895,-273.543 362,-252 382.897,-202.556 388.745,-138.365 390.375,-108.151"/>
</g>
<!-- ApplicationRecord&#45;&gt;UserDetail -->
<g id="edge17" class="edge"><title>ApplicationRecord&#45;&gt;UserDetail</title>
<path fill="none" stroke="black" d="M326.753,-309.439C341.894,-294.933 363.864,-272.952 381,-252 421.72,-202.212 462.589,-137.642 480.955,-107.658"/>
</g>
<!-- ApplicationRecord&#45;&gt;Comment -->
<g id="edge18" class="edge"><title>ApplicationRecord&#45;&gt;Comment</title>
<path fill="none" stroke="black" d="M276.288,-310.483C260.384,-303.214 240.884,-294.701 223,-288 172.451,-269.06 141.372,-293.624 107,-252 55.8597,-190.071 57.1035,-144.812 91,-72 98.7214,-55.414 114.471,-42.164 128.291,-33.0605"/>
</g>
</g>
</svg>
